# xmcd
#
# Track frame offsets: 
#        182
#        22682
#        43567
#        61457
#        82457
#        104877
#        120102
#        137057
#        157677
#        176502
#
# Disc length: 2614 seconds
#
# Revision: 4
# Processed by: cddbd v1.5.1PL2 Copyright (c) Steve Scherf et al.
# Submitted via: ExactAudioCopy v0.95b3
#
DISCID=7a0a340a
DTITLE=Ron Cooley - Livin' The Good Life 
DYEAR=1991
DGENRE=New Age
TTITLE0=Livin' The Good Life
TTITLE1=Willows In The Wind
TTITLE2=San Diego Strut
TTITLE3=Rain Dance
TTITLE4=Back Bay Window
TTITLE5=Castles
TTITLE6=Lonely Nights
TTITLE7=Wine, Candlelight, And You
TTITLE8=That Foggy Feeling
TTITLE9=Teardrops
EXTD=Livin'TheGoodLife~dedicated to Billy Rogers, Omaha,NE\nBackBayWin
EXTD=dow~dedicated to Mick Goodrick,Boston,MA YEAR: 1991
EXTT0=
EXTT1=
EXTT2=
EXTT3=
EXTT4=
EXTT5=
EXTT6=
EXTT7=
EXTT8=
EXTT9=
PLAYORDER=
